<svg width="2083" height="443" viewBox="0 0 2083 443" fill="none" xmlns="http://www.w3.org/2000/svg">
<path d="M161.5 34.641C198.628 13.2051 244.372 13.2051 281.5 34.641L353.325 76.109C390.453 97.5449 413.325 137.16 413.325 180.032V262.968C413.325 305.84 390.453 345.455 353.325 366.891L281.5 408.359C244.372 429.795 198.628 429.795 161.5 408.359L89.6754 366.891C52.5472 345.455 29.6754 305.84 29.6754 262.968V180.032C29.6754 137.16 52.5472 97.5449 89.6754 76.109L161.5 34.641Z" fill="white"/>
<path d="M245.25 63.7328L345.072 121.365C360.078 130.029 369.322 146.04 369.322 163.368V278.632C369.322 295.96 360.078 311.971 345.072 320.635L245.25 378.267C230.244 386.931 211.756 386.931 196.75 378.267L96.9276 320.635C81.9217 311.971 72.6776 295.96 72.6776 278.632V163.368C72.6776 146.04 81.9217 130.029 96.9276 121.365L196.75 63.7328C211.756 55.0691 230.244 55.0691 245.25 63.7328Z" fill="url(#paint0_linear_355_532)" stroke="white" stroke-width="3"/>
<path d="M226.558 203.273L353.335 149.541C360.918 146.327 369.323 151.893 369.323 160.129V177.34C369.323 181.522 367.053 185.373 363.395 187.4L226.705 263.125C223.175 265.08 218.878 265.042 215.382 263.024L78.4277 183.954C74.8696 181.899 72.6777 178.103 72.6777 173.994V162.329C72.6777 154.163 80.9511 148.599 88.5143 151.678L215.432 203.353C219.004 204.807 223.008 204.778 226.558 203.273Z" fill="#1CCED1" stroke="white" stroke-width="3"/>
<path d="M223.533 144.008L351.837 119.432C358.927 118.074 365.5 123.508 365.5 130.726V139.228C365.5 143.917 362.653 148.137 358.304 149.892L224.68 203.825C222.156 204.844 219.353 204.935 216.768 204.081L81.8926 159.523C77.1817 157.967 74 153.565 74 148.604V130.684C74 123.477 80.552 118.047 87.6333 119.383L218.115 144.015C219.905 144.353 221.743 144.351 223.533 144.008Z" fill="#1CCED1" stroke="white" stroke-width="3"/>
<path d="M500.353 350L615.553 98H641.833L757.033 350H728.953L623.113 113.48H633.913L528.073 350H500.353ZM545.713 282.68L553.633 261.08H700.153L708.073 282.68H545.713ZM833.724 352.16C814.524 352.16 796.764 349.04 780.444 342.8C764.364 336.32 750.324 327.32 738.324 315.8C726.564 304.28 717.324 290.72 710.604 275.12C704.124 259.52 700.884 242.48 700.884 224C700.884 205.52 704.124 188.48 710.604 172.88C717.324 157.28 726.684 143.72 738.684 132.2C750.684 120.68 764.724 111.8 780.804 105.56C797.124 99.08 814.884 95.84 834.084 95.84C853.284 95.84 870.804 98.84 886.644 104.84C902.724 110.84 916.404 119.96 927.684 132.2L911.124 149.12C900.564 138.56 888.924 131 876.204 126.44C863.484 121.88 849.804 119.6 835.164 119.6C819.564 119.6 805.164 122.24 791.964 127.52C779.004 132.56 767.604 139.88 757.764 149.48C748.164 158.84 740.604 169.88 735.084 182.6C729.804 195.08 727.164 208.88 727.164 224C727.164 238.88 729.804 252.68 735.084 265.4C740.604 278.12 748.164 289.28 757.764 298.88C767.604 308.24 779.004 315.56 791.964 320.84C805.164 325.88 819.444 328.4 834.804 328.4C849.204 328.4 862.764 326.24 875.484 321.92C888.444 317.6 900.324 310.28 911.124 299.96L926.244 320.12C914.244 330.68 900.204 338.72 884.124 344.24C868.044 349.52 851.244 352.16 833.724 352.16ZM900.684 316.88V224H926.244V320.12L900.684 316.88ZM929.642 350V98H956.282V350H929.642ZM966.274 350V98H992.914V326.96H1134.03V350H966.274ZM1130.03 210.68H1263.23V233.36H1130.03V210.68ZM1132.91 326.96H1284.47V350H1106.27V98H1279.07V121.04H1132.91V326.96ZM1297.31 350V98H1319.27L1434.47 294.56H1422.95L1537.07 98H1559.03V350H1533.47V137.96H1539.59L1434.47 317.96H1421.87L1316.03 137.96H1322.87V350H1297.31ZM1569.13 350V98H1595.77V350H1569.13ZM1605.77 350V98H1627.73L1801.61 316.88H1790.09V98H1816.37V350H1794.41L1620.89 131.12H1632.41V350H1605.77ZM1826.62 350V98H1929.22C1956.1 98 1979.62 103.4 1999.78 114.2C2020.18 124.76 2036.02 139.52 2047.3 158.48C2058.58 177.44 2064.22 199.28 2064.22 224C2064.22 248.72 2058.58 270.56 2047.3 289.52C2036.02 308.48 2020.18 323.36 1999.78 334.16C1979.62 344.72 1956.1 350 1929.22 350H1826.62ZM1853.26 326.96H1927.78C1950.1 326.96 1969.42 322.64 1985.74 314C2002.3 305.12 2015.14 293 2024.26 277.64C2033.38 262.04 2037.94 244.16 2037.94 224C2037.94 203.6 2033.38 185.72 2024.26 170.36C2015.14 155 2002.3 143 1985.74 134.36C1969.42 125.48 1950.1 121.04 1927.78 121.04H1853.26V326.96Z" fill="white"/>
<defs>
<linearGradient id="paint0_linear_355_532" x1="-139.5" y1="162" x2="501" y2="342" gradientUnits="userSpaceOnUse">
<stop offset="0.122048" stop-color="#39728B"/>
<stop offset="1" stop-color="#17313D"/>
</linearGradient>
</defs>
</svg>
